<svg width="71" height="20" viewBox="0 0 71 20" fill="none" xmlns="http://www.w3.org/2000/svg">
<path fill-rule="evenodd" clip-rule="evenodd" d="M70.6521 16.4761C70.6521 18.2427 69.5336 19.0661 67.5315 19.0661H63.7053V17.2996H67.5315C67.8849 17.2996 68.1792 17.2412 68.2978 17.1238C68.4148 17.0056 68.5326 16.8288 68.5326 16.5935C68.5326 16.3576 68.4156 16.1224 68.2978 16.0049C68.1792 15.8868 67.9444 15.8284 67.591 15.8284C65.7661 15.769 63.4697 15.8868 63.4697 13.2965C63.4697 12.1185 64.2348 10.8232 66.2956 10.8232H70.24V12.5897H66.5896C66.2369 12.5897 66.001 12.5897 65.8245 12.7071C65.6476 12.884 65.5302 13.0605 65.5302 13.3552C65.5302 13.6495 65.707 13.8263 65.9423 13.9445C66.1782 14.0028 66.4138 14.0619 66.7081 14.0619H67.7675C68.886 14.0619 69.5931 14.2971 70.0643 14.7096C70.4165 15.1217 70.6521 15.6523 70.6521 16.4761ZM62.3505 14.7096C61.8793 14.2971 61.1726 14.0619 60.0541 14.0619H58.9947C58.7004 14.0619 58.4644 14.0025 58.2292 13.9445C57.9933 13.8263 57.8175 13.6495 57.8175 13.3552C57.8175 13.0605 57.8758 12.884 58.1114 12.7071C58.2883 12.5897 58.5235 12.5897 58.8769 12.5897H62.5274V10.8232H58.5826C56.4627 10.8232 55.7559 12.1185 55.7559 13.2965C55.7559 15.8864 58.0527 15.769 59.8779 15.8284C60.2306 15.8284 60.4665 15.8868 60.584 16.0049C60.7014 16.1224 60.8199 16.3576 60.8199 16.5935C60.8199 16.8288 60.7018 17.0056 60.584 17.1238C60.4075 17.2412 60.1722 17.2996 59.8189 17.2996H55.9915V19.0661H59.8189C61.8199 19.0661 62.9391 18.2423 62.9391 16.4761C62.9391 15.6523 62.7039 15.1217 62.3505 14.7096ZM54.814 17.3594H50.1635V15.7107H54.6969V14.0627H50.1635V12.5314H54.814V10.8243H48.2205V19.0665H54.814V17.3594ZM46.1006 11.2364C45.4526 10.883 44.6875 10.8239 43.6864 10.8239H39.1534V19.0661H41.1548V16.0637H43.2747C43.9807 16.0637 44.3932 16.1227 44.6878 16.417C45.0412 16.8288 45.0412 17.5355 45.0412 18.0658V19.0661H46.9835V17.4764C46.9835 16.711 46.9252 16.3576 46.6896 15.9459C46.5127 15.7099 46.1604 15.4156 45.6893 15.2391C46.2184 15.063 47.1024 14.3562 47.1024 13.0605C47.1017 12.1193 46.7483 11.589 46.1006 11.2364ZM34.914 10.8239H28.6141L26.0825 13.5324L23.6683 10.8239H15.72V19.0661H23.5508L26.0828 16.3576L28.4967 19.0661H32.324V16.2996H34.7966C36.504 16.2996 38.2118 15.8284 38.2118 13.5324C38.2114 11.2951 36.4449 10.8239 34.914 10.8239ZM44.5106 14.2392C44.2167 14.3562 43.922 14.3562 43.5686 14.3562L41.1548 14.4157V12.531H43.5686C43.922 12.531 44.2754 12.531 44.5106 12.7075C44.7465 12.826 44.9227 13.0609 44.9227 13.4142C44.9227 13.768 44.7465 14.0623 44.5106 14.2392ZM34.914 14.6509H32.3233V12.531H34.914C35.6207 12.531 36.0915 12.826 36.0915 13.5324C36.0915 14.2392 35.6204 14.6509 34.914 14.6509ZM27.3187 14.9448L30.3802 11.7072V18.3601L27.3187 14.9448ZM22.5498 17.3594H17.6627V15.7107H22.0195V14.0627H17.6627V12.5314H22.6085L24.7871 14.9452L22.5498 17.3594ZM65.1764 8.24255H62.3505L58.6413 2.06045V8.24255H54.6382L53.872 6.41732H49.7511L48.9856 8.24255H46.6892C45.7472 8.24255 44.5106 8.00696 43.8049 7.3002C43.1569 6.59382 42.8035 5.65184 42.8035 4.17999C42.8035 2.94334 42.98 1.82487 43.8629 0.941978C44.4515 0.293927 45.5116 0 46.8653 0H48.7493V1.76653H46.8653C46.1593 1.76653 45.7469 1.88432 45.3348 2.2377C44.9814 2.59108 44.8049 3.23839 44.8049 4.12165C44.8049 5.00454 44.9814 5.65222 45.3348 6.06468C45.6291 6.3586 46.1593 6.4764 46.6888 6.4764H47.5721L50.398 0.000376595H53.3421L56.6392 7.77175V0H59.7011L63.1747 5.71093V0H65.176V8.24255H65.1764ZM41.8028 0H39.8015V8.24255H41.8028V0ZM37.6221 0.353383C36.9744 2.74155e-06 36.2684 0 35.2674 0H30.7336V8.24255H32.6763V5.23975H34.7958C35.5026 5.23975 35.9737 5.29846 36.268 5.59313C36.6214 6.00522 36.562 6.71199 36.562 7.18279V8.24255H38.5633V6.59382C38.5633 5.88743 38.5046 5.53405 38.2107 5.12196C38.0338 4.88637 37.6804 4.59171 37.2687 4.41558C37.7979 4.17999 38.6819 3.53231 38.6819 2.23696C38.6822 1.29536 38.2698 0.765099 37.6221 0.353383ZM29.3205 6.53548H24.728V4.88675H29.2614V3.17968H24.728V1.70745H29.3205V0.000376595H22.7263V8.24292H29.3205V6.53548ZM21.2544 0H18.016L15.6022 5.59313L13.0115 0H9.8322V7.77138L6.47639 0H3.53268L0 8.24255H2.11953L2.88463 6.41732H7.0059L7.77137 8.24255H11.7752V1.76653L14.6599 8.24255H16.3669L19.2523 1.76653V8.24255H21.254L21.2544 0ZM53.1663 4.65116L51.8115 1.41315L50.4578 4.65116H53.1663ZM36.0915 3.35618C35.7976 3.53306 35.5029 3.53306 35.0908 3.53306H32.6763V1.70782H35.0905C35.4439 1.70782 35.8552 1.70782 36.0912 1.82561C36.3264 2.00249 36.4445 2.23808 36.4445 2.59108C36.4445 2.94409 36.3268 3.23801 36.0915 3.35618ZM3.59102 4.65116L4.94546 1.41315L6.29952 4.65116H3.59102Z" fill="white"/>
</svg>
