<?xml version="1.0" encoding="UTF-8"?>
<svg width="24px" height="24px" viewBox="0 0 24 24" xmlns="http://www.w3.org/2000/svg" xmlns:xlink="http://www.w3.org/1999/xlink" version="1.1">
 <!-- Generated by Pixelmator Pro 1.1.1 -->
 <path id="path" d="M7.717 15.516 L7.719 15.516 C7.719 15.516 7.72 15.516 7.721 15.516 L20.444 15.516 C20.758 15.516 21.033 15.307 21.119 15.006 L23.926 5.162 C23.987 4.95 23.944 4.722 23.812 4.546 23.679 4.369 23.472 4.266 23.251 4.266 L6.099 4.266 5.597 2.004 C5.526 1.682 5.241 1.453 4.912 1.453 L0.702 1.453 C0.314 1.453 0 1.768 0 2.156 0 2.545 0.314 2.859 0.702 2.859 L4.349 2.859 C4.438 3.26 6.75 13.684 6.883 14.283 6.137 14.608 5.614 15.353 5.614 16.219 5.614 17.382 6.558 18.328 7.719 18.328 L20.444 18.328 C20.832 18.328 21.146 18.013 21.146 17.625 21.146 17.237 20.832 16.922 20.444 16.922 L7.719 16.922 C7.332 16.922 7.017 16.606 7.017 16.219 7.017 15.832 7.331 15.517 7.717 15.516 Z M22.321 5.672 L19.915 14.109 8.282 14.109 6.411 5.672 Z" fill="#60996c" fill-opacity="1" stroke="none"/>
 <path id="path-1" d="M7.017 20.438 C7.017 21.601 7.962 22.547 9.123 22.547 10.284 22.547 11.228 21.601 11.228 20.438 11.228 19.275 10.284 18.328 9.123 18.328 7.962 18.328 7.017 19.275 7.017 20.438 Z M9.123 19.734 C9.51 19.734 9.824 20.05 9.824 20.438 9.824 20.825 9.51 21.141 9.123 21.141 8.736 21.141 8.421 20.825 8.421 20.438 8.421 20.05 8.736 19.734 9.123 19.734 Z" fill="#60996c" fill-opacity="1" stroke="none"/>
 <path id="path-2" d="M16.936 20.438 C16.936 21.601 17.88 22.547 19.041 22.547 20.202 22.547 21.146 21.601 21.146 20.438 21.146 19.275 20.202 18.328 19.041 18.328 17.88 18.328 16.936 19.275 16.936 20.438 Z M19.041 19.734 C19.428 19.734 19.743 20.05 19.743 20.438 19.743 20.825 19.428 21.141 19.041 21.141 18.654 21.141 18.339 20.825 18.339 20.438 18.339 20.05 18.654 19.734 19.041 19.734 Z" fill="#60996c" fill-opacity="1" stroke="none"/>
</svg>
