<svg width="25" height="20" viewBox="0 0 25 20" fill="none" xmlns="http://www.w3.org/2000/svg">
<rect opacity="0.2" width="24.7505" height="19.8004" rx="4.02914" fill="white"/>
<path opacity="0.5" d="M8.58052 18.1502C8.83719 17.9058 9.35053 17.2702 9.35053 16.6835C9.35053 15.9502 8.58052 15.5835 8.58052 14.8501V12.6501M8.58052 12.6501H1.65039M8.58052 12.6501V7.15M8.58052 1.6499C8.83719 1.89435 9.35053 2.52992 9.35053 3.1166C9.35053 3.84994 8.58052 4.21662 8.58052 4.94996V7.15M8.58052 7.15H1.65039" stroke="white" stroke-width="1.15118" stroke-linecap="round"/>
<path opacity="0.5" d="M16.1695 18.1502C15.9128 17.9058 15.3995 17.2702 15.3995 16.6835C15.3995 15.9502 16.1695 15.5835 16.1695 14.8501V12.6501M16.1695 12.6501H23.0996M16.1695 12.6501V8.30118C16.1695 7.6654 16.6849 7.15 17.3207 7.15H23.0996M16.1695 1.6499C15.9128 1.89435 15.3995 2.52992 15.3995 3.1166C15.3995 3.84994 16.1695 4.21662 16.1695 4.94996" stroke="white" stroke-width="1.15118" stroke-linecap="round"/>
</svg>
