<svg width="17" height="16" viewBox="0 0 17 16" fill="none" xmlns="http://www.w3.org/2000/svg">
<path d="M14.625 5.375C14.8535 5.375 15.0651 5.41732 15.2598 5.50195C15.4544 5.58659 15.6237 5.70508 15.7676 5.85742C15.9199 6.0013 16.0384 6.17057 16.123 6.36523C16.2077 6.5599 16.25 6.76725 16.25 6.9873C16.25 7.0804 16.2415 7.1735 16.2246 7.2666C16.2077 7.35124 16.1865 7.43587 16.1611 7.52051L14.0029 14.0205C13.8929 14.3506 13.694 14.6172 13.4062 14.8203C13.1185 15.0234 12.8011 15.125 12.4541 15.125H0V5.375H3.38965C3.6097 5.375 3.80013 5.2946 3.96094 5.13379L8.125 0.969727C8.27734 0.817383 8.46354 0.703125 8.68359 0.626953C8.91211 0.542318 9.13216 0.5 9.34375 0.5C9.62305 0.5 9.88542 0.555013 10.1309 0.665039C10.3763 0.766602 10.5921 0.910482 10.7783 1.09668C10.9645 1.28288 11.1084 1.4987 11.21 1.74414C11.32 1.98958 11.375 2.25195 11.375 2.53125C11.375 2.58203 11.3581 2.67936 11.3242 2.82324C11.2988 2.95866 11.2607 3.11947 11.21 3.30566C11.1676 3.49186 11.1211 3.69076 11.0703 3.90234C11.0195 4.11393 10.9688 4.31706 10.918 4.51172C10.8672 4.70638 10.8206 4.88411 10.7783 5.04492C10.736 5.19727 10.7064 5.30729 10.6895 5.375H14.625ZM14.625 7H8.60742L9.7373 2.45508C9.72038 2.36198 9.67383 2.28581 9.59766 2.22656C9.52148 2.15885 9.43685 2.125 9.34375 2.125C9.33529 2.125 9.31836 2.12923 9.29297 2.1377C9.27604 2.14616 9.26335 2.15039 9.25488 2.15039L5.11621 6.28906C4.8877 6.51758 4.62109 6.69531 4.31641 6.82227C4.02018 6.94076 3.71126 7 3.38965 7H1.625V13.5H12.4541L14.625 7Z" fill="#8DC899"/>
</svg>
