<svg width="22" height="20" viewBox="0 0 22 20" fill="none" xmlns="http://www.w3.org/2000/svg">
<path d="M19.839 1.969C20.997 3.12682 21.6754 4.67906 21.7384 6.31538C21.8014 7.95171 21.2445 9.55153 20.179 10.795L20.192 10.808L19.838 11.161L18.424 9.74601L18.545 9.62601L18.661 9.492C19.3722 8.66173 19.7567 7.60098 19.7429 6.50787C19.7291 5.41476 19.3179 4.36406 18.586 3.552L18.425 3.383C17.6508 2.60877 16.6209 2.14336 15.5282 2.07396C14.4355 2.00456 13.3549 2.33593 12.489 3.006L12.309 3.154L11 4.284L9.69302 3.154C8.84877 2.42519 7.76396 2.03587 6.64895 2.06152C5.53393 2.08717 4.46817 2.52598 3.65834 3.29284C2.8485 4.05971 2.3523 5.09999 2.26596 6.21195C2.17961 7.32391 2.50927 8.42832 3.19102 9.311L3.33802 9.491L3.45202 9.625L12.413 18.586L11 20L1.80802 10.808L1.82102 10.795C0.752212 9.55065 0.193402 7.94821 0.256672 6.30907C0.319943 4.66994 1.00061 3.11534 2.16216 1.95708C3.32371 0.798821 4.88024 0.122561 6.51955 0.0639396C8.15885 0.00531834 9.75971 0.568671 11.001 1.641C12.2437 0.570247 13.8452 0.00898378 15.4844 0.0698183C17.1236 0.130653 18.6792 0.809085 19.839 1.969ZM18 12V15H21V17H17.999L18 20H16L15.999 17H13V15H16V12H18Z" fill="#60996C"/>
</svg>
