<svg width="49" height="29" viewBox="0 0 49 29" fill="none" xmlns="http://www.w3.org/2000/svg">
<path fill-rule="evenodd" clip-rule="evenodd" d="M22.171 14.6726H23.9858C24.0794 14.1538 23.911 13.7091 23.3311 13.7091C22.7509 13.7091 22.3394 14.0056 22.171 14.6726ZM11.9377 15.6358C11.6943 15.598 11.1517 15.4503 10.6839 15.7653C10.216 16.0803 10.0853 16.6356 10.5718 16.8216C11.0399 16.9997 11.7311 16.6922 11.8253 16.2096L11.9377 15.6358ZM45.2573 15.4688C45.407 14.9873 45.3253 14.386 45.1636 14.1726C44.715 13.5798 43.6826 14.0484 43.3678 15.2101C43.1621 15.9694 43.6112 16.5436 44.1162 16.5436C44.659 16.5433 44.9955 16.1173 45.2573 15.4688ZM36.633 15.6358C36.3896 15.598 35.8473 15.4503 35.3795 15.7653C34.9116 16.0803 34.7806 16.6356 35.2674 16.8216C35.7358 16.9997 36.4267 16.6922 36.5203 16.2096L36.633 15.6358Z" fill="white"/>
<path fill-rule="evenodd" clip-rule="evenodd" d="M49 14.6384C49 6.70645 42.5063 0.276156 34.4965 0.276156C31.0206 0.276156 27.8578 1.48071 25.36 3.49972C27.2653 5.32133 28.7199 7.60207 29.5003 10.1801H28.2953C27.54 7.88809 26.2134 5.86577 24.489 4.24294C22.753 5.87995 21.4538 7.91745 20.7075 10.1732H19.5023C20.2719 7.64242 21.6824 5.34855 23.5996 3.50966C21.1079 1.51136 17.9602 0.275879 14.5038 0.275879C6.49397 0.275879 0 6.70617 0 14.6381C0 22.5697 6.49369 29 14.5038 29C17.9599 29 21.1079 27.7645 23.5996 25.7662C21.709 23.9501 20.2793 21.6664 19.5023 19.1029H20.7075C21.4539 21.3587 22.7531 23.3962 24.489 25.0332C26.2137 23.4101 27.54 21.3881 28.2953 19.0958H29.5003C28.7199 21.6738 27.2653 23.9548 25.36 25.7762C27.8578 27.7949 31.0206 28.9997 34.4965 28.9997C42.5063 29 49 22.5697 49 14.6384ZM38.3407 18.0024L39.3421 12.6883H40.6082L40.7406 13.2121C40.9676 12.9498 41.4022 12.6883 42.1391 12.6883L41.7427 14.0726C41.7246 14.0726 41.7057 14.0724 41.686 14.0722C41.3154 14.0675 40.6811 14.0596 40.2686 15.5698L39.815 18.0024H38.3407ZM18.9343 11.3377H20.3936L20.0942 12.7458H20.8796L20.618 13.8943H19.8697L19.4579 16.0431C19.3829 16.4508 19.4206 16.8216 20.2626 16.6919L20.1689 17.7661C19.8508 17.9698 19.4206 18.0259 19.0835 18.0259C18.747 18.0259 17.6429 17.8216 17.9239 16.3768L18.9343 11.3377ZM25.2579 15.6358C25.4263 14.7833 25.8195 12.6718 23.2564 12.6718C20.9706 12.6718 20.6198 14.8484 20.5494 15.2847C20.5472 15.2984 20.5453 15.3104 20.5436 15.3205C20.4876 15.6543 20.4502 18.0068 22.9756 18.0068C23.5932 18.0256 24.4912 17.9514 24.847 17.7658L25.0714 16.6734C24.847 16.7283 24.0047 16.8028 23.4245 16.8028C23.4081 16.8028 23.3915 16.8029 23.3745 16.8029H23.3738C22.7921 16.804 21.9143 16.8055 22.0776 15.6358H25.2579ZM17.5503 13.9316L17.8868 12.8568C17.2821 12.6303 16.7919 12.6442 16.5402 12.6514H16.5401C16.5037 12.6524 16.4723 12.6533 16.4463 12.6533L16.4384 12.6533L16.4363 12.6533C16.1896 12.6529 14.4846 12.6506 14.22 13.9131C14.0142 14.8951 14.3772 15.3012 14.7252 15.4506C15.0922 15.6081 15.3552 15.7576 15.577 15.8837L15.5771 15.8837C15.6946 15.9505 15.8005 16.0108 15.9043 16.0621C16.2745 16.2454 16.2065 16.8586 15.7169 16.8586C15.6782 16.8586 15.6173 16.8619 15.5392 16.8661C15.1643 16.8864 14.394 16.9281 13.7901 16.7286L13.5843 17.8216C14.2579 18.0071 14.7999 18.0071 15.3057 18.0071C15.3217 18.0071 15.3405 18.0073 15.3619 18.0075C15.8147 18.0121 17.4118 18.028 17.6437 16.5063C17.7625 15.7294 17.4193 15.376 17.1385 15.2101C16.858 15.0246 16.3902 14.7653 16.0911 14.6353C15.7916 14.5058 15.5672 14.0058 16.1097 13.8576C16.4463 13.8203 17.1383 13.8203 17.5503 13.9316ZM8.08372 18.0068L9.2996 11.597H6.90521L5.12753 15.4876L4.84678 11.597H2.50842L1.25491 18.0068H2.71391L3.61194 13.3755L4.00506 18.0068H5.38933L7.42881 13.4868L6.56813 18.0068H8.08372ZM9.69216 12.8385L9.46772 13.987C9.55457 13.9781 9.67709 13.9625 9.82004 13.9443L9.82008 13.9443C10.2626 13.8879 10.9008 13.8065 11.2825 13.8203C11.3308 13.8221 11.3796 13.823 11.4282 13.8239L11.4284 13.8239C11.8886 13.8326 12.3328 13.841 12.1805 14.5613C12.1325 14.5661 12.0474 14.5635 11.9348 14.5602C11.1702 14.5372 9.13444 14.4762 8.776 16.4136C8.6076 17.5071 9.5614 18.0626 10.3097 18.0259C11.058 17.9886 11.2638 17.8959 11.5259 17.7103L11.713 18.0068H13.0783L13.6585 15.1171C13.8082 14.3946 14.051 12.653 11.6006 12.653C11.5247 12.6562 11.4473 12.6583 11.3663 12.6605C10.9682 12.6713 10.4855 12.6844 9.69216 12.8385ZM33.34 13.079C32.9653 12.8565 32.704 12.8198 32.2172 12.8198C31.731 12.8198 30.6456 13.28 30.4404 14.5798C30.197 16.1173 31.2632 16.8766 32.7601 16.3768L33.1903 17.6736C32.704 17.8959 32.2172 18.0068 31.4129 18.0068C29.8973 18.0068 28.2512 16.6734 28.9995 13.9683C29.5513 11.9752 31.2824 11.2453 32.2925 11.2822C33.4894 11.3264 33.9202 11.7267 34.2943 12.1345L33.34 13.079ZM45.7812 13.3013C45.7083 13.2485 45.643 13.1807 45.5742 13.1093C45.3778 12.9054 45.1528 12.6718 44.6397 12.6718C44.5968 12.6718 44.5525 12.6714 44.5072 12.6709C43.703 12.6632 42.5439 12.6522 41.8712 14.9318C41.3958 16.5414 42.3574 18.0071 43.4046 18.0071C43.8914 17.9889 44.3777 17.7849 44.6765 17.5811L44.8645 18.0071H46.4355L47.708 11.264H46.1735L45.7812 13.3013ZM34.3877 12.8385L34.1627 13.987C34.2498 13.9781 34.3725 13.9624 34.5156 13.9442L34.5157 13.9442C34.9582 13.8878 35.5959 13.8065 35.9778 13.8203C36.0261 13.8221 36.075 13.823 36.1236 13.8239C36.5837 13.8326 37.0284 13.841 36.8758 14.5613C36.8278 14.5661 36.7427 14.5635 36.6301 14.5602C35.8655 14.5372 33.8297 14.4762 33.4713 16.4136C33.3026 17.5071 34.2564 18.0626 35.0047 18.0259C35.7536 17.9886 35.9588 17.8959 36.2212 17.7103L36.4085 18.0068H37.7736L38.354 15.1171C38.5038 14.3946 38.7466 12.653 36.2956 12.653C36.2198 12.6562 36.1423 12.6583 36.0614 12.6605C35.6634 12.6713 35.1805 12.6844 34.3877 12.8385ZM26.2915 12.7458L25.2998 18.0069V18.0071H26.7593L27.2079 15.5983C27.6128 14.117 28.2503 14.1281 28.6198 14.1345C28.6429 14.1349 28.665 14.1353 28.6859 14.1353L29.06 12.7458C28.331 12.7458 27.9008 13.005 27.6758 13.2645L27.545 12.7458H26.2915Z" fill="white"/>
</svg>
