<svg width="17" height="16" viewBox="0 0 17 16" fill="none" xmlns="http://www.w3.org/2000/svg">
<path d="M2.375 10.625C2.14648 10.625 1.9349 10.5827 1.74023 10.498C1.54557 10.4134 1.3763 10.2949 1.23242 10.1426C1.08008 9.9987 0.961588 9.82943 0.876953 9.63477C0.792318 9.4401 0.75 9.23275 0.75 9.0127C0.75 8.9196 0.758463 8.8265 0.775391 8.7334C0.792318 8.64876 0.813477 8.56413 0.838867 8.47949L2.99707 1.97949C3.1071 1.64941 3.30599 1.38281 3.59375 1.17969C3.88151 0.976562 4.19889 0.875 4.5459 0.875H17V10.625H13.6104C13.3903 10.625 13.1999 10.7054 13.0391 10.8662L8.875 15.0303C8.72266 15.1826 8.53646 15.2969 8.31641 15.373C8.08789 15.4577 7.86784 15.5 7.65625 15.5C7.37695 15.5 7.11458 15.445 6.86914 15.335C6.6237 15.2334 6.40788 15.0895 6.22168 14.9033C6.03548 14.7171 5.8916 14.5013 5.79004 14.2559C5.68001 14.0104 5.625 13.748 5.625 13.4688C5.625 13.418 5.64193 13.3206 5.67578 13.1768C5.70117 13.0413 5.73926 12.8805 5.79004 12.6943C5.83236 12.5081 5.87891 12.3092 5.92969 12.0977C5.98047 11.8861 6.03125 11.6829 6.08203 11.4883C6.13281 11.2936 6.17936 11.1159 6.22168 10.9551C6.264 10.8027 6.29362 10.6927 6.31055 10.625H2.375ZM2.375 9H8.39258L7.2627 13.5449C7.27962 13.638 7.32617 13.7142 7.40234 13.7734C7.47852 13.8411 7.56315 13.875 7.65625 13.875C7.66471 13.875 7.68164 13.8708 7.70703 13.8623C7.72396 13.8538 7.73665 13.8496 7.74512 13.8496L11.8838 9.71094C12.1123 9.48242 12.3789 9.30469 12.6836 9.17773C12.9798 9.05924 13.2887 9 13.6104 9H15.375V2.5H4.5459L2.375 9Z" fill="#DF8B98"/>
</svg>
