<svg width="117" height="109" viewBox="0 0 117 109" fill="none" xmlns="http://www.w3.org/2000/svg">
<path d="M117 72.6308V48.6163C117 47.5722 115.892 46.9849 115.045 47.4417L60.0318 79.2218C58.8585 79.8743 57.4245 79.8743 56.2513 79.2218L2.02061 47.507C1.10808 46.9849 0 47.5722 0 48.6163V72.6308C0 74.0012 0.716992 75.2411 1.89025 75.8937L56.6423 107.543C57.8156 108.196 59.2496 108.196 60.4228 107.543L115.175 75.8937C116.283 75.1759 117 73.936 117 72.6308Z" fill="#E1E1EA"/>
<path d="M58.4673 92.4036C58.2718 92.4036 58.0111 92.3384 57.8155 92.2079L20.6623 70.7384C20.2712 70.5426 20.0105 70.0858 20.0105 69.629V26.69C20.0105 26.2332 20.2712 25.8417 20.6623 25.5807L57.8155 4.11119C58.0111 3.98068 58.8584 3.98068 59.054 4.11119L96.2072 25.5807C96.5983 25.7764 96.859 26.2332 96.859 26.69V69.6943C96.859 70.1511 96.5983 70.5426 96.2072 70.8036L59.054 92.2731C58.9236 92.3384 58.728 92.4036 58.4673 92.4036Z" fill="#E1E1EA"/>
<path d="M44.7142 39.7415L46.5392 43.4611C46.7348 43.8526 47.1259 44.1789 47.5821 44.2442L51.6885 44.8315C52.8618 45.0273 53.3181 46.3977 52.4707 47.1807L49.4724 50.1173C49.1465 50.4436 49.0161 50.9004 49.0813 51.3572L49.7983 55.4683C49.9938 56.5777 48.8206 57.4913 47.7777 56.9693L44.1275 55.0116C43.7365 54.8158 43.215 54.8158 42.8239 55.0116L39.1738 56.9693C38.1309 57.4913 36.9576 56.643 37.1532 55.4683L37.8702 51.3572C37.9353 50.9004 37.805 50.4436 37.4791 50.1173L34.4807 47.1807C33.6334 46.3977 34.0897 44.962 35.2629 44.8315L39.3693 44.2442C39.8256 44.1789 40.2167 43.9179 40.4122 43.4611L42.2373 39.7415C42.6936 38.6973 44.1927 38.6973 44.7142 39.7415Z" fill="#9D9DB1"/>
<path d="M74.0457 39.7415L75.8707 43.4611C76.0663 43.8526 76.4574 44.1789 76.9136 44.2442L81.02 44.8315C82.1933 45.0273 82.6496 46.3977 81.8022 47.1807L78.8039 50.1173C78.478 50.4436 78.3476 50.9004 78.4128 51.3572L79.1298 55.4683C79.3253 56.5777 78.1521 57.4913 77.1092 56.9693L73.459 55.0116C73.0679 54.8158 72.5465 54.8158 72.1554 55.0116L68.5053 56.9693C67.4624 57.4913 66.2891 56.643 66.4846 55.4683L67.2016 51.3572C67.2668 50.9004 67.1365 50.4436 66.8106 50.1173L63.8122 47.1807C62.9649 46.3977 63.4211 44.962 64.5944 44.8315L68.7008 44.2442C69.1571 44.1789 69.5482 43.9179 69.7437 43.4611L71.5688 39.7415C72.025 38.6973 73.5242 38.6973 74.0457 39.7415Z" fill="#9D9DB1"/>
<path d="M95.751 20.7517L61.0747 0.717825C60.2925 0.261027 59.38 0 58.4675 0C57.5549 0 56.7076 0.261027 55.8602 0.717825L21.2491 20.7517C18.1204 22.5789 16.165 25.9069 16.165 29.5613V66.7577C16.165 70.4121 18.1204 73.7402 21.2491 75.5674L55.9254 95.6012C56.7076 96.058 57.6201 96.319 58.5327 96.319C59.4452 96.319 60.2926 96.058 61.1399 95.6012L95.8162 75.5674C98.9449 73.7402 100.9 70.4121 100.9 66.7577V29.5613C100.835 25.9069 98.8797 22.5789 95.751 20.7517ZM93.0134 65.1915C93.0134 66.9535 92.0357 68.6502 90.5366 69.4985L61.0095 86.5958C59.4452 87.5094 57.555 87.5094 56.0558 86.5958L26.5288 69.4985C24.9644 68.5849 24.0519 66.9535 24.0519 65.1915V31.0622C24.0519 29.3003 25.0296 27.6036 26.5288 26.7553L52.7967 11.5505C58.1416 8.54864 58.7934 8.54864 65.116 12.0725L90.5366 26.7553C92.1009 27.6689 93.0134 29.3003 93.0134 31.0622V65.1915Z" fill="#9D9DB1"/>
</svg>
