<svg width="62" height="20" viewBox="0 0 62 20" fill="none" xmlns="http://www.w3.org/2000/svg">
<path d="M26.5004 19.505H21.5469L24.6451 0.347656H29.5984L26.5004 19.505Z" fill="white"/>
<path d="M44.4568 0.815605C43.4797 0.427983 41.9301 0 40.0139 0C35.1222 0 31.6774 2.60853 31.6563 6.33793C31.6157 9.08948 34.1226 10.6178 35.9976 11.5352C37.9141 12.4727 38.5655 13.0846 38.5655 13.9203C38.546 15.2037 37.0169 15.7953 35.5908 15.7953C33.6131 15.7953 32.5534 15.4903 30.9431 14.7762L30.2908 14.4701L29.5977 18.7706C30.7594 19.2998 32.8999 19.7695 35.1221 19.7901C40.3197 19.7901 43.7035 17.222 43.7436 13.2477C43.7633 11.0669 42.4396 9.39584 39.5856 8.03036C37.8531 7.15381 36.7921 6.56276 36.7921 5.66589C36.8124 4.85056 37.6895 4.01545 39.6452 4.01545C41.2556 3.97455 42.4388 4.36163 43.3351 4.74898L43.7831 4.95241L44.4568 0.815605Z" fill="white"/>
<path d="M51.0398 12.7182C51.4478 11.6177 53.0175 7.35817 53.0175 7.35817C52.9969 7.39907 53.4246 6.23729 53.6692 5.52408L54.0154 7.17479C54.0154 7.17479 54.9534 11.7604 55.1571 12.7182C54.383 12.7182 52.0182 12.7182 51.0398 12.7182ZM57.1543 0.347656H53.3228C52.1412 0.347656 51.2435 0.693834 50.7338 1.93715L43.376 19.5047H48.5735C48.5735 19.5047 49.4292 17.1403 49.6131 16.631C50.1833 16.631 55.2395 16.631 55.973 16.631C56.1152 17.3036 56.5641 19.5047 56.5641 19.5047H61.1505L57.1543 0.347656Z" fill="white"/>
<path d="M17.4084 0.347656L12.5573 13.4111L12.0272 10.7617C11.1304 7.70462 8.31761 4.38315 5.17871 2.73163L9.62214 19.4847H14.8603L22.6464 0.347656H17.4084Z" fill="white"/>
<path d="M8.05122 0.344482H0.081533L0 0.731562C6.21685 2.32133 10.3341 6.15339 12.0258 10.7594L10.2932 1.95483C10.008 0.731292 9.13147 0.384843 8.05122 0.344482Z" fill="white"/>
</svg>
