<?xml version="1.0" standalone="no"?>
<!DOCTYPE svg PUBLIC "-//W3C//DTD SVG 20010904//EN"
 "http://www.w3.org/TR/2001/REC-SVG-20010904/DTD/svg10.dtd">
<svg version="1.0" xmlns="http://www.w3.org/2000/svg"
 width="736.000000pt" height="736.000000pt" viewBox="0 0 736.000000 736.000000"
 preserveAspectRatio="xMidYMid meet">
<metadata>
Created by potrace 1.11, written by Peter Selinger 2001-2013
</metadata>
<g transform="translate(0.000000,736.000000) scale(0.100000,-0.100000)"
fill="#000000" stroke="none">
<path d="M3529 7321 c-41 -21 -146 -80 -234 -131 -88 -51 -178 -102 -200 -115
-22 -12 -67 -37 -100 -55 -33 -18 -62 -36 -65 -39 -3 -3 -23 -15 -45 -26 -22
-11 -42 -22 -45 -25 -4 -4 -28 -18 -115 -64 -11 -6 -22 -13 -25 -16 -3 -3 -23
-15 -45 -27 -48 -25 -70 -38 -240 -135 -71 -42 -146 -84 -165 -94 -19 -10 -36
-22 -38 -26 -2 -5 -7 -8 -12 -8 -5 0 -48 -23 -97 -51 -48 -28 -112 -64 -141
-80 -28 -16 -70 -40 -92 -54 -22 -14 -40 -22 -40 -18 0 5 -4 4 -8 -2 -4 -5
-18 -16 -31 -23 -13 -8 -40 -23 -60 -34 -20 -11 -70 -40 -111 -63 -41 -23 -91
-51 -110 -62 -114 -64 -501 -284 -530 -302 -19 -11 -52 -29 -72 -38 -21 -10
-38 -21 -38 -25 0 -5 -5 -8 -10 -8 -6 0 -85 -43 -178 -96 -184 -105 -230 -146
-262 -232 -20 -52 -20 -81 -20 -1791 0 -1958 -7 -1792 79 -1882 26 -27 52 -49
59 -49 7 0 12 -4 12 -10 0 -5 4 -10 10 -10 5 0 47 -22 94 -50 47 -27 89 -50
95 -50 6 0 11 -4 11 -10 0 -5 4 -10 9 -10 6 0 60 -29 122 -65 61 -36 113 -65
114 -65 3 0 220 -124 245 -140 8 -5 39 -22 67 -37 29 -15 53 -31 53 -35 0 -4
6 -8 14 -8 11 0 244 -130 306 -170 8 -6 24 -14 35 -20 11 -5 47 -25 80 -45 54
-31 98 -56 214 -120 20 -11 57 -32 81 -47 25 -14 72 -41 105 -59 33 -17 72
-40 87 -51 14 -10 29 -18 32 -18 3 0 29 -14 58 -31 50 -30 66 -39 153 -89 19
-11 51 -29 70 -40 19 -11 51 -29 71 -40 19 -11 68 -39 107 -62 40 -22 90 -51
112 -62 22 -12 42 -24 45 -27 3 -3 34 -22 70 -41 36 -20 88 -49 116 -65 27
-17 72 -43 100 -58 27 -15 94 -54 150 -86 55 -32 106 -59 112 -59 7 0 12 -4
12 -9 0 -20 107 -53 180 -56 73 -3 126 12 190 55 8 5 123 71 255 146 132 76
254 145 270 155 17 11 37 22 45 26 8 4 67 37 130 73 63 37 135 78 160 92 25
14 95 53 155 88 61 35 128 72 150 84 22 12 42 24 43 29 2 4 8 7 13 7 6 0 51
24 102 54 51 30 96 54 100 54 5 0 23 12 42 26 18 14 41 26 49 26 9 0 16 3 16
8 0 4 30 23 68 42 37 19 69 37 72 40 5 5 14 10 89 52 20 11 65 37 101 58 56
32 115 65 205 114 11 6 23 15 26 19 3 5 12 9 20 10 8 2 32 14 54 27 57 36 78
48 95 57 8 4 141 79 295 167 154 87 305 173 336 190 87 48 133 91 165 153 l29
58 3 1745 c3 1944 7 1807 -67 1891 -36 41 -253 179 -281 179 -6 0 -10 5 -10
10 0 6 -4 10 -9 10 -5 0 -95 50 -201 110 -107 61 -197 110 -202 110 -4 0 -8 5
-8 10 0 6 -5 10 -11 10 -6 0 -24 9 -40 21 -16 11 -29 17 -29 13 0 -4 -8 0 -17
8 -10 8 -38 26 -63 39 -25 13 -47 26 -50 29 -3 3 -23 15 -45 27 -75 40 -120
65 -130 73 -5 4 -35 21 -65 37 -30 17 -75 42 -100 56 -143 81 -227 128 -240
137 -8 6 -26 16 -40 22 -14 7 -121 68 -238 135 -118 68 -216 123 -218 123 -2
0 -21 11 -42 23 -20 13 -57 35 -82 49 -25 14 -132 75 -239 137 -106 61 -195
111 -196 111 -2 0 -47 26 -102 58 -54 32 -134 78 -178 102 -44 24 -84 47 -90
52 -14 12 -89 53 -154 85 -41 20 -74 27 -131 29 -72 3 -81 1 -151 -35z m284
-660 c48 -28 90 -51 93 -51 3 0 30 -16 60 -35 30 -19 61 -35 68 -35 8 0 16 -4
18 -8 2 -5 50 -35 108 -67 58 -32 113 -65 123 -73 9 -8 17 -12 17 -8 0 4 12
-1 28 -12 15 -10 162 -95 327 -189 165 -94 316 -180 335 -191 19 -12 58 -33
85 -47 28 -15 57 -33 65 -40 8 -8 17 -13 20 -12 3 1 69 -35 147 -81 78 -45
145 -82 149 -82 4 0 15 -6 23 -14 9 -7 41 -27 71 -44 30 -16 111 -62 179 -101
68 -39 128 -71 132 -71 4 0 14 -6 21 -14 8 -7 41 -28 74 -45 32 -18 73 -40 89
-50 17 -10 53 -30 80 -45 28 -16 55 -32 60 -36 6 -4 42 -24 80 -45 39 -20 77
-45 85 -54 13 -15 15 -198 14 -1537 -1 -835 -2 -1522 -3 -1526 0 -5 -6 -8 -12
-8 -6 0 -43 -20 -82 -44 -40 -24 -82 -46 -94 -50 -13 -4 -23 -12 -23 -17 0 -5
-4 -9 -9 -9 -5 0 -67 -33 -138 -74 -70 -40 -148 -84 -173 -98 -57 -32 -235
-133 -309 -176 -31 -18 -65 -37 -76 -43 -11 -5 -42 -23 -70 -40 -27 -16 -62
-34 -77 -40 -16 -6 -28 -15 -28 -20 0 -5 -5 -9 -11 -9 -6 0 -56 -26 -112 -59
-124 -71 -475 -269 -537 -302 -25 -13 -47 -27 -50 -30 -3 -3 -12 -8 -21 -11
-14 -6 -16 46 -16 550 0 635 -10 567 97 673 72 72 240 155 240 120 0 -43 87
-171 115 -171 7 0 18 -7 25 -15 20 -24 129 -36 195 -22 22 5 48 10 58 12 36 8
158 75 215 118 215 166 390 470 428 747 5 37 6 171 1 200 -9 56 -31 130 -39
130 -4 0 -8 8 -9 18 0 9 -9 -6 -18 -34 -28 -77 -47 -109 -95 -158 -85 -86
-170 -116 -370 -131 -167 -12 -322 -62 -419 -135 -32 -23 -107 -99 -107 -106
0 -4 -7 -15 -16 -25 -9 -10 -17 -39 -19 -66 -10 -142 94 -179 295 -107 63 22
280 129 290 143 3 3 22 15 43 26 20 11 37 23 37 27 0 5 5 8 10 8 8 0 119 73
155 102 6 5 24 20 40 33 61 51 48 22 -20 -41 -213 -200 -432 -319 -780 -424
-38 -11 -77 -24 -85 -27 -8 -3 -17 -7 -20 -8 -3 -1 -18 -8 -35 -15 -16 -7 -36
-14 -43 -16 -8 -1 -22 -10 -31 -18 -10 -9 -21 -16 -26 -16 -4 0 -29 -13 -56
-30 -27 -16 -50 -26 -52 -22 -3 4 -4 240 -4 525 l0 517 206 117 c113 64 208
116 210 114 2 -1 7 1 10 6 3 5 42 30 86 55 295 166 676 385 710 407 164 107
187 308 50 445 -58 59 -129 85 -216 82 -71 -4 -92 -12 -260 -108 -52 -30 -102
-58 -110 -61 -8 -4 -30 -17 -49 -28 -33 -20 -511 -293 -575 -329 -88 -49 -172
-96 -186 -105 -9 -5 -36 -21 -60 -34 -24 -13 -52 -30 -61 -39 -10 -8 -18 -12
-18 -7 0 4 -6 3 -12 -3 -7 -5 -57 -35 -110 -66 -117 -67 -151 -99 -186 -174
l-26 -57 0 -1458 -1 -1458 -80 -45 c-159 -90 -183 -102 -191 -94 -5 4 -35 21
-66 39 -138 75 -173 94 -178 98 -2 2 -5 655 -5 1451 -1 796 -5 1463 -9 1482
-11 48 -43 99 -85 138 -29 26 -248 156 -546 322 -22 13 -60 34 -85 48 -25 14
-103 59 -175 100 -71 41 -150 86 -175 100 -25 14 -87 49 -138 78 -52 30 -96
54 -98 54 -3 0 -25 14 -49 30 -24 17 -46 30 -50 30 -3 0 -42 21 -86 47 -77 45
-84 47 -162 47 -97 1 -152 -20 -212 -80 -85 -87 -109 -208 -62 -315 25 -57 90
-123 150 -153 17 -9 55 -30 82 -47 28 -16 58 -32 68 -36 9 -3 17 -10 17 -15 0
-5 4 -7 9 -3 5 3 12 1 15 -4 6 -9 90 -59 231 -135 11 -6 22 -13 25 -16 3 -3
16 -11 30 -17 14 -7 48 -26 75 -42 28 -16 66 -38 85 -49 39 -22 85 -48 213
-121 17 -10 56 -32 85 -50 29 -17 55 -31 57 -31 3 0 26 -13 52 -29 27 -16 68
-40 93 -54 l45 -25 3 -526 c1 -289 0 -526 -3 -526 -3 0 -22 11 -43 24 -52 33
-174 89 -252 116 -71 24 -95 32 -95 30 0 -1 -47 15 -105 35 -190 65 -425 194
-547 299 -51 43 -145 136 -168 166 -15 19 49 -33 75 -61 12 -13 199 -143 240
-167 25 -14 48 -31 52 -37 4 -5 8 -7 8 -2 0 4 17 -3 37 -16 21 -12 68 -37 104
-54 170 -81 297 -104 364 -65 38 23 55 56 55 108 0 158 -267 329 -548 349
-132 10 -160 14 -210 29 -134 39 -221 120 -267 249 l-22 59 -16 -40 c-25 -63
-29 -89 -33 -202 -4 -123 18 -239 67 -365 34 -86 97 -208 111 -213 4 -2 8 -8
8 -13 0 -13 73 -112 120 -163 95 -104 253 -207 360 -236 55 -15 171 -22 185
-10 5 5 12 8 15 8 61 2 169 126 170 195 0 22 16 22 81 -5 99 -41 189 -113 237
-190 22 -35 22 -38 22 -593 l0 -557 -47 28 c-27 15 -57 32 -68 38 -11 6 -22
14 -25 17 -3 3 -18 12 -35 20 -16 9 -88 49 -160 90 -155 90 -283 163 -345 197
-25 14 -87 49 -137 79 -51 29 -96 53 -100 53 -3 0 -14 6 -22 14 -9 7 -47 31
-86 52 -38 20 -103 57 -143 81 -41 24 -76 43 -78 43 -2 0 -21 11 -42 23 -20
13 -59 36 -87 52 -88 49 -170 96 -185 105 -8 6 -71 42 -140 81 -69 39 -129 75
-134 79 -11 11 -11 3049 0 3060 10 9 123 73 164 93 14 6 27 14 30 18 3 3 39
24 80 45 41 21 77 42 80 45 3 4 32 21 65 38 33 18 67 36 75 41 66 39 146 84
205 115 39 21 72 41 75 44 3 3 23 15 45 26 22 11 89 48 149 83 60 34 110 62
111 62 2 0 43 23 92 51 48 29 106 61 128 73 79 43 390 220 395 226 3 3 23 14
45 25 22 11 42 22 45 25 3 3 21 13 40 24 57 30 107 58 260 146 213 122 210
120 270 153 30 17 57 33 60 36 3 3 27 17 55 31 27 14 54 29 60 33 5 5 44 28
85 51 75 43 75 43 105 26 17 -10 70 -40 118 -69z m1931 -3556 c-4 -8 -11 -15
-16 -15 -6 0 -5 6 2 15 7 8 14 15 16 15 2 0 1 -7 -2 -15z"/>
<path d="M3603 5682 c-173 -164 -316 -427 -360 -662 -9 -51 -10 -185 -1 -225
6 -22 12 -51 14 -65 17 -89 132 -230 219 -270 83 -38 100 -42 175 -45 163 -8
309 81 388 234 18 34 34 72 36 84 2 12 9 41 14 63 9 41 8 187 -2 232 -31 138
-138 397 -180 431 -9 7 -16 18 -16 23 0 23 -139 185 -206 241 -20 16 -22 15
-81 -41z"/>
</g>
</svg>
